<?xml version='1.0' encoding='iso-8859-1'?>
<svg version="1.1" xmlns="http://www.w3.org/2000/svg" viewBox="0 0 490 490" xmlns:xlink="http://www.w3.org/1999/xlink" enable-background="new 0 0 490 490">
  <g>
    <g>
      <path d="m0,490h255.5l-127.8-195.3-127.7,195.3zm38-21.1l89.7-137.2 89.7,137.2h-179.4z"/>
      <path d="m346.1,158.8l95.3-95.3c4.1-4.1 4.1-10.8 0-14.9-4.1-4.1-10.8-4.1-14.9,0l-95.3,95.3-143.9-143.9c-83.6,83.6-83.6,219.1 0,302.7s219.1,83.6 302.7,0l-143.9-143.9zm-143.9,129c-70.2-70.2-74.9-181.5-14.1-257.2l271.3,271.3c-75.8,60.8-187,56.1-257.2-14.1z"/>
    </g>
  </g>
</svg>
