<?xml version="1.0" encoding="iso-8859-1"?>
<!-- Generator: Adobe Illustrator 19.0.0, SVG Export Plug-In . SVG Version: 6.00 Build 0)  -->
<svg version="1.1" id="Layer_1" xmlns="http://www.w3.org/2000/svg" xmlns:xlink="http://www.w3.org/1999/xlink" x="0px" y="0px"
	 viewBox="0 0 297.001 297.001" style="enable-background:new 0 0 297.001 297.001;" xml:space="preserve">
<g>
	<g>
		<g>
			<path d="M287.116,65.232H9.884C4.425,65.232,0,69.657,0,75.115v146.77c0,5.458,4.425,9.884,9.884,9.884h277.233
				c5.458,0,9.884-4.425,9.884-9.884V75.115C297,69.657,292.575,65.232,287.116,65.232z M19.767,84.998h31.486l-31.486,31.486
				V84.998z M19.767,212.001v-31.486l31.486,31.486H19.767z M277.233,212.002h-31.486l31.486-31.486V212.002z M277.233,152.56
				l-59.442,59.442H79.209L19.767,152.56v-8.119l59.442-59.442h138.582l59.442,59.442V152.56z M277.233,116.485L245.747,85h31.486
				V116.485z"/>
			<path d="M148.5,93.152c-30.519,0-55.348,24.829-55.348,55.348s24.829,55.348,55.348,55.348s55.348-24.828,55.348-55.348
				C203.848,117.98,179.019,93.152,148.5,93.152z M148.5,184.081c-19.619,0-35.581-15.961-35.581-35.581S128.88,112.92,148.5,112.92
				s35.581,15.961,35.581,35.581S168.119,184.081,148.5,184.081z"/>
		</g>
	</g>
</g>
<g>
</g>
<g>
</g>
<g>
</g>
<g>
</g>
<g>
</g>
<g>
</g>
<g>
</g>
<g>
</g>
<g>
</g>
<g>
</g>
<g>
</g>
<g>
</g>
<g>
</g>
<g>
</g>
<g>
</g>
</svg>
